<?xml version="1.0" encoding="UTF-8" standalone="no"?>
<!DOCTYPE svg PUBLIC "-//W3C//DTD SVG 1.1//EN" "http://www.w3.org/Graphics/SVG/1.1/DTD/svg11.dtd">
<svg width="100%" height="100%" viewBox="0 0 5000 2997" version="1.1" xmlns="http://www.w3.org/2000/svg" xmlns:xlink="http://www.w3.org/1999/xlink" xml:space="preserve" xmlns:serif="http://www.serif.com/" style="fill-rule:evenodd;clip-rule:evenodd;stroke-linejoin:round;stroke-miterlimit:1.41421;">
    <g transform="matrix(4.16667,0,0,4.16667,0,0)">
        <g id="Artboard1" transform="matrix(1,0,0,0.944178,0,-185.279)">
            <rect x="0" y="196.233" width="1200" height="761.7" style="fill:none;"/>
            <g transform="matrix(3.23252,0,0,3.42364,-4459.4,-4359.98)">
                <g transform="matrix(1.28345,0,0,1.28345,998.497,1202.53)">
                    <path d="M439.734,201.091L457.693,207.026L469.793,201.596L480.546,179.779L473.744,171.74L466.229,164.695L445.963,157.992L435.393,169.495L426.671,186.161L439.734,201.091ZM457.711,207.679C457.677,207.679 457.644,207.674 457.611,207.663L439.454,201.663C439.401,201.646 439.353,201.614 439.316,201.571L426.053,186.414C425.967,186.316 425.95,186.175 426.01,186.06L434.852,169.165C434.865,169.141 434.881,169.118 434.9,169.098L445.636,157.414C445.72,157.323 445.85,157.289 445.968,157.328L466.494,164.117C466.537,164.132 466.577,164.155 466.611,164.187L474.189,171.292C474.198,171.3 474.207,171.309 474.214,171.318L481.162,179.529C481.243,179.624 481.259,179.76 481.204,179.872L470.309,201.977C470.277,202.043 470.222,202.095 470.155,202.125L457.839,207.652C457.798,207.67 457.755,207.679 457.711,207.679" style="fill:rgb(51,0,254);fill-rule:nonzero;"/>
                </g>
                <g transform="matrix(1.28345,0,0,1.28345,998.497,1202.53)">
                    <path d="M467.875,186.348L450.242,180.533C450.185,180.513 450.134,180.478 450.096,180.431L439.308,167.01L439.8,166.615L450.529,179.962L468.072,185.748L467.875,186.348Z" style="fill:rgb(51,0,254);fill-rule:nonzero;"/>
                </g>
                <g transform="matrix(1.28345,0,0,1.28345,998.497,1202.53)">
                    <path d="M440.569,180.945L446.214,187.623L448.183,183.763L440.569,180.945ZM446.656,188.146L452.275,194.795L456.321,186.776L448.78,183.985L446.656,188.146ZM446.344,188.756L440.254,200.686L451.836,195.253L446.344,188.756ZM452.784,195.189L468.982,201.118L456.833,187.165L452.784,195.189ZM470.026,202.153C469.99,202.153 469.953,202.146 469.918,202.133L452.357,195.705L439.687,201.649C439.565,201.707 439.421,201.679 439.326,201.583C439.232,201.486 439.211,201.34 439.272,201.219L445.902,188.233L439.312,180.436C439.219,180.326 439.213,180.168 439.295,180.05C439.377,179.933 439.528,179.886 439.663,179.936L448.472,183.198L454.422,171.546L439.452,166.453L439.655,165.855L454.97,171.065C455.057,171.094 455.127,171.161 455.161,171.246C455.196,171.331 455.191,171.426 455.15,171.507L449.069,183.419L456.607,186.209L466.797,166.011L467.361,166.296L457.139,186.555L470.264,201.63C470.359,201.738 470.368,201.897 470.286,202.015C470.226,202.103 470.128,202.153 470.026,202.153" style="fill:rgb(51,0,254);fill-rule:nonzero;"/>
                </g>
                <g transform="matrix(1.28345,0,0,1.28345,998.497,1202.53)">
                    <path d="M457.711,207.679C457.624,207.679 457.539,207.643 457.48,207.578L443.795,192.793L426.185,186.504C426.064,186.46 425.981,186.348 425.976,186.219C425.97,186.09 426.044,185.971 426.161,185.918L439.317,179.992L449.058,159.388L449.628,159.657L439.839,180.367C439.807,180.436 439.752,180.49 439.684,180.521L427.135,186.172L444.081,192.225C444.129,192.241 444.172,192.27 444.206,192.307L457.628,206.809L467.69,185.911C467.72,185.848 467.772,185.795 467.835,185.765L480.079,179.792L463.16,174.31L450.465,180.547L450.187,179.981L462.997,173.686C463.07,173.651 463.156,173.644 463.233,173.669L481.018,179.433C481.141,179.472 481.227,179.582 481.235,179.71C481.245,179.839 481.175,179.96 481.06,180.017L468.211,186.284L457.995,207.5C457.95,207.595 457.861,207.66 457.758,207.676C457.742,207.678 457.727,207.679 457.711,207.679" style="fill:rgb(51,0,254);fill-rule:nonzero;"/>
                </g>
                <g transform="matrix(1.28345,0,0,1.28345,998.497,1202.53)">
                    <path d="M462.897,174.177L449.97,159.271L450.448,158.857L463.376,173.763L462.897,174.177Z" style="fill:rgb(51,0,254);fill-rule:nonzero;"/>
                </g>
                <g transform="matrix(1.28345,0,0,1.28345,998.497,1202.53)">
                    <path d="M454.99,171.656L454.747,171.073L467.852,165.606L468.095,166.188L454.99,171.656Z" style="fill:rgb(51,0,254);fill-rule:nonzero;"/>
                </g>
                <g transform="matrix(-0.19208,-1.269,1.269,-0.19208,1475.66,2037.2)">
                    <path d="M485.877,203.744C485.845,203.866 485.801,203.981 485.733,204.087C485.593,204.305 485.376,204.469 485.127,204.543C485.031,204.572 484.933,204.585 484.833,204.588L484.815,203.974L484.804,204.588C484.766,204.587 484.729,204.585 484.692,204.581C484.52,204.558 484.363,204.501 484.217,204.408C484.032,204.281 483.851,204.145 483.669,204.012C482.904,203.45 482.149,202.875 481.406,202.284C478.36,199.861 475.501,197.204 472.788,194.416C471.302,192.889 469.861,191.319 468.463,189.711C467.347,188.429 466.258,187.123 465.209,185.786C465.003,185.525 464.8,185.262 464.6,184.997C464.369,184.69 464.141,184.381 463.911,184.074C463.695,183.789 463.479,183.504 463.263,183.219C462.633,182.4 461.999,181.585 461.354,180.779C459.271,178.178 457.094,175.65 454.804,173.228C453.788,172.153 452.749,171.099 451.678,170.079C451.27,169.69 450.856,169.307 450.436,168.931C450.007,168.547 449.571,168.171 449.121,167.813C448.629,167.478 448.136,167.144 447.641,166.812C441.895,162.959 435.978,159.358 429.894,156.061C425.319,153.582 420.651,151.269 415.891,149.164C411.882,147.39 407.805,145.764 403.658,144.342C402.259,143.862 400.851,143.406 399.435,142.981C398.263,142.629 397.084,142.296 395.896,142.001C395.605,141.928 395.313,141.862 395.02,141.794C394.968,141.779 394.969,141.779 394.917,141.761C394.85,141.735 394.785,141.705 394.724,141.668C394.586,141.583 394.471,141.467 394.383,141.332L394.364,141.302C394.298,141.192 394.249,141.069 394.225,140.942C394.176,140.677 394.23,140.392 394.373,140.164C394.504,139.956 394.705,139.795 394.937,139.714C395.109,139.653 395.289,139.643 395.469,139.667C395.588,139.69 395.707,139.718 395.825,139.745C397.154,140.057 398.471,140.423 399.779,140.812C401.433,141.304 403.074,141.837 404.705,142.401C408.967,143.875 413.157,145.559 417.275,147.396C421.581,149.317 425.812,151.404 429.969,153.629C434.636,156.128 439.209,158.802 443.683,161.633C445.811,162.98 447.916,164.363 450.001,165.778L450.394,166.046C450.728,166.302 451.049,166.575 451.367,166.85C451.832,167.253 452.287,167.667 452.737,168.087C453.977,169.245 455.172,170.452 456.339,171.684C458.918,174.407 461.357,177.263 463.679,180.207C464.231,180.907 464.777,181.612 465.315,182.322C465.687,182.812 466.051,183.306 466.421,183.797C466.519,183.925 466.618,184.053 466.716,184.18C467.896,185.693 469.125,187.167 470.389,188.61C471.612,190.005 472.869,191.371 474.159,192.705C475.601,194.195 477.086,195.644 478.618,197.041C480.109,198.401 481.646,199.712 483.235,200.956C483.964,201.525 484.704,202.079 485.455,202.619C485.497,202.651 485.496,202.65 485.537,202.684C485.59,202.734 485.64,202.785 485.684,202.842C485.811,203.01 485.887,203.215 485.902,203.425C485.907,203.493 485.903,203.559 485.897,203.626C485.889,203.686 485.889,203.685 485.877,203.744Z" style="fill:rgb(38,3,165);fill-rule:nonzero;"/>
                </g>
                <g transform="matrix(1.28345,0,0,1.28345,998.497,1203.9)">
                    <path d="M484.741,204.585C484.61,204.577 484.48,204.544 484.36,204.49C484.313,204.468 484.268,204.44 484.224,204.412C484.121,204.346 484.024,204.27 483.925,204.198C483.84,204.137 483.755,204.075 483.669,204.013C481.32,202.291 479.083,200.42 476.937,198.452C475.582,197.209 474.264,195.927 472.979,194.612C471.426,193.023 469.921,191.387 468.463,189.711C467.347,188.429 466.258,187.123 465.209,185.787C465.004,185.526 464.801,185.263 464.601,184.999C464.369,184.692 464.142,184.381 463.911,184.074C463.696,183.788 463.479,183.504 463.263,183.219C462.839,182.667 462.414,182.117 461.983,181.571C459.787,178.786 457.485,176.081 455.056,173.495C453.96,172.328 452.838,171.183 451.678,170.08C450.852,169.295 450.01,168.525 449.12,167.812C448.628,167.478 448.136,167.144 447.642,166.812C445.827,165.597 443.997,164.405 442.149,163.239C440.406,162.139 438.645,161.066 436.871,160.016C433.852,158.231 430.792,156.516 427.688,154.883C423.197,152.52 418.622,150.319 413.957,148.322C410.037,146.645 406.052,145.118 402.002,143.787C400.488,143.29 398.964,142.825 397.428,142.403C396.919,142.263 396.409,142.128 395.896,142.001C395.714,141.956 395.532,141.911 395.349,141.869C395.244,141.845 395.138,141.818 395.031,141.798L394.964,141.778C394.897,141.755 394.83,141.728 394.767,141.694C394.646,141.626 394.536,141.533 394.449,141.425C394.361,141.315 394.294,141.188 394.253,141.053C394.166,140.757 394.209,140.429 394.372,140.167C394.445,140.048 394.542,139.946 394.654,139.863C394.771,139.777 394.905,139.715 395.047,139.682C395.202,139.645 395.359,139.647 395.516,139.676C395.62,139.699 395.723,139.721 395.827,139.745C397.918,140.246 399.982,140.852 402.03,141.509C404.982,142.456 407.898,143.516 410.78,144.658C413.494,145.734 416.179,146.886 418.834,148.101C422.603,149.826 426.315,151.672 429.969,153.628C431.284,154.332 432.591,155.052 433.891,155.783C437.711,157.928 441.461,160.197 445.146,162.566C446.268,163.288 447.383,164.019 448.492,164.761C449.128,165.186 449.764,165.611 450.394,166.046C450.45,166.084 450.501,166.129 450.554,166.172C450.595,166.204 450.636,166.237 450.677,166.27C450.859,166.418 451.04,166.569 451.219,166.723C452.165,167.533 453.072,168.39 453.962,169.262C454.951,170.231 455.915,171.225 456.859,172.238C459.245,174.795 461.513,177.461 463.679,180.207C464.231,180.906 464.776,181.612 465.315,182.321C465.485,182.545 465.813,182.981 465.98,183.205C466.127,183.402 466.272,183.6 466.421,183.796C466.59,184.017 466.76,184.236 466.931,184.456C469.142,187.257 471.5,189.942 473.974,192.513C475.337,193.929 476.738,195.309 478.182,196.641C479.735,198.074 481.335,199.457 482.994,200.766C483.476,201.147 483.964,201.522 484.456,201.889C484.788,202.136 485.122,202.379 485.457,202.621C485.498,202.651 485.497,202.651 485.536,202.684C485.656,202.793 485.752,202.921 485.816,203.07C485.957,203.398 485.926,203.788 485.732,204.089C485.662,204.198 485.572,204.295 485.468,204.372C485.366,204.448 485.249,204.507 485.127,204.543C485.043,204.569 484.956,204.58 484.868,204.588C484.804,204.588 484.805,204.589 484.741,204.585Z" style="fill:rgb(38,3,165);fill-rule:nonzero;"/>
                </g>
                <g transform="matrix(1.28345,0,0,1.28345,998.497,1202.53)">
                    <path d="M393.965,127.957C394.018,127.959 394.018,127.959 394.07,127.967L394.116,127.973C394.274,128.007 394.433,128.04 394.591,128.076C395.87,128.363 397.139,128.7 398.4,129.059C399.939,129.495 401.468,129.966 402.987,130.466C407.391,131.915 411.721,133.583 415.978,135.418C420.869,137.526 425.669,139.845 430.374,142.34C436.872,145.785 443.189,149.566 449.316,153.633L449.361,153.662C449.852,154.041 450.328,154.44 450.797,154.847C451.307,155.291 451.807,155.746 452.301,156.207C453.434,157.266 454.534,158.359 455.611,159.475C458.128,162.082 460.518,164.815 462.798,167.633C463.474,168.468 464.141,169.311 464.798,170.161C465.062,170.503 465.322,170.846 465.586,171.188C465.685,171.314 465.785,171.441 465.885,171.567C467.086,173.063 468.331,174.522 469.614,175.948C470.974,177.461 472.374,178.938 473.814,180.374C476.295,182.849 478.896,185.208 481.648,187.379C482.29,187.886 482.942,188.382 483.602,188.866C483.932,189.109 484.266,189.347 484.6,189.585L484.853,189.761L484.897,189.792C484.936,189.826 484.936,189.826 484.975,189.86C485.092,189.973 485.185,190.107 485.244,190.259C485.391,190.638 485.311,191.079 485.04,191.381C484.951,191.479 484.844,191.563 484.726,191.623C484.581,191.697 484.423,191.734 484.261,191.741L484.235,191.126L484.235,191.741L484.16,191.741C484.079,191.731 483.998,191.721 483.919,191.697C483.811,191.664 483.711,191.613 483.616,191.552C483.44,191.429 483.265,191.305 483.09,191.181C479.758,188.801 476.64,186.133 473.69,183.297C471.717,181.401 469.818,179.43 467.989,177.395C466.853,176.131 465.74,174.843 464.667,173.524C464.396,173.191 464.126,172.857 463.863,172.518C463.711,172.322 463.562,172.124 463.411,171.928C463.191,171.641 462.969,171.355 462.748,171.07C462.53,170.791 462.311,170.512 462.092,170.234C461.456,169.434 460.815,168.637 460.163,167.85C458.142,165.412 456.037,163.042 453.833,160.767C452.743,159.642 451.627,158.541 450.474,157.48C449.73,156.795 448.972,156.121 448.175,155.498L448.081,155.425C447.46,155.015 446.839,154.604 446.215,154.199C444.154,152.861 442.073,151.554 439.97,150.283C436.698,148.304 433.374,146.414 430.003,144.609C428.428,143.765 426.841,142.943 425.244,142.142C421.914,140.473 418.54,138.893 415.119,137.418C410.925,135.611 406.66,133.966 402.322,132.538C401.09,132.133 399.852,131.747 398.608,131.383C397.258,130.988 395.901,130.616 394.532,130.295C394.255,130.23 393.978,130.171 393.701,130.11L393.655,130.102C393.602,130.086 393.547,130.07 393.495,130.049C393.381,130.001 393.274,129.932 393.182,129.849C392.974,129.659 392.845,129.388 392.829,129.107C392.821,128.959 392.843,128.81 392.893,128.672C392.93,128.571 392.982,128.474 393.046,128.388C393.119,128.291 393.211,128.204 393.311,128.137C393.412,128.07 393.527,128.018 393.644,127.988C393.71,127.971 393.776,127.964 393.843,127.957C393.904,127.954 393.904,127.954 393.965,127.957ZM484.143,190.765L484.148,190.769C484.146,190.768 484.141,190.764 484.143,190.765ZM393.899,129.184L393.899,129.184L393.897,129.184C393.897,129.184 393.898,129.184 393.899,129.184Z" style="fill:rgb(38,3,165);fill-rule:nonzero;"/>
                </g>
                <g transform="matrix(1.29504,0,0,1.29504,989.904,1201.75)">
                    <path d="M486.469,171.676C486.469,177.652 481.625,182.495 475.65,182.495C469.674,182.495 464.83,177.652 464.83,171.676C464.83,165.7 469.674,160.857 475.65,160.857C481.625,160.857 486.469,165.7 486.469,171.676" style="fill:rgb(2,249,159);fill-rule:nonzero;"/>
                </g>
                <g transform="matrix(1.28345,0,0,1.28345,998.497,1206.33)">
                    <path d="M478.931,152.383C478.931,158.051 474.336,162.646 468.668,162.646C463,162.646 458.406,158.051 458.406,152.383C458.406,146.715 463,142.12 468.668,142.12C474.336,142.12 478.931,146.715 478.931,152.383" style="fill:rgb(2,249,159);fill-rule:nonzero;"/>
                </g>
                <g transform="matrix(1.28345,0,0,1.28345,998.497,1202.53)">
                    <path d="M491.141,163.962C491.141,169.63 486.546,174.225 480.878,174.225C475.21,174.225 470.616,169.63 470.616,163.962C470.616,158.294 475.21,153.699 480.878,153.699C486.546,153.699 491.141,158.294 491.141,163.962" style="fill:rgb(2,249,159);fill-rule:nonzero;"/>
                </g>
                <g transform="matrix(1.28345,0,0,1.28345,998.497,1202.53)">
                    <path d="M453.963,158.409C453.963,170.181 444.42,179.724 432.648,179.724C420.876,179.724 411.333,170.181 411.333,158.409C411.333,146.638 420.876,137.094 432.648,137.094C444.42,137.094 453.963,146.638 453.963,158.409" style="fill:rgb(2,249,159);fill-rule:nonzero;"/>
                </g>
                <g transform="matrix(2.26111,0,0,2.26111,-313.953,-169.681)">
                    <text x="762.699px" y="741.175px" style="font-family:'Rubik-Bold', 'Rubik';font-weight:700;font-size:21.54px;fill:rgb(38,3,165);">OD</text>
                    <text x="793.738px" y="741.175px" style="font-family:'Rubik-Bold', 'Rubik';font-weight:700;font-size:21.54px;fill:rgb(38,3,165);">D</text>
                    <text x="811.912px" y="741.175px" style="font-family:'Rubik-Bold', 'Rubik';font-weight:700;font-size:21.54px;fill:rgb(38,3,165);">SCENES</text>
                </g>
            </g>
        </g>
    </g>
</svg>
