<?xml version="1.0" encoding="UTF-8" standalone="no"?>
<!DOCTYPE svg PUBLIC "-//W3C//DTD SVG 1.1//EN" "http://www.w3.org/Graphics/SVG/1.1/DTD/svg11.dtd">
<svg width="100%" height="100%" viewBox="0 0 5000 2997" version="1.1" xmlns="http://www.w3.org/2000/svg" xmlns:xlink="http://www.w3.org/1999/xlink" xml:space="preserve" xmlns:serif="http://www.serif.com/" style="fill-rule:evenodd;clip-rule:evenodd;stroke-linejoin:round;stroke-miterlimit:1.41421;">
    <g id="Artboard1" transform="matrix(4.16667,0,0,3.93408,0,-771.996)">
        <rect x="0" y="196.233" width="1200" height="761.7" style="fill:none;"/>
        <g transform="matrix(3.23252,0,0,3.42364,-4459.4,-4359.98)">
            <g transform="matrix(1.28345,0,0,1.28345,998.497,1202.53)">
                <path d="M439.734,201.091L457.693,207.026L469.793,201.596L480.546,179.779L473.744,171.74L466.229,164.695L445.963,157.992L435.393,169.495L426.671,186.161L439.734,201.091ZM457.711,207.679C457.677,207.679 457.644,207.674 457.611,207.663L439.454,201.663C439.401,201.646 439.353,201.614 439.316,201.571L426.053,186.414C425.967,186.316 425.95,186.175 426.01,186.06L434.852,169.165C434.865,169.141 434.881,169.118 434.9,169.098L445.636,157.414C445.72,157.323 445.85,157.289 445.968,157.328L466.494,164.117C466.537,164.132 466.577,164.155 466.611,164.187L474.189,171.292C474.198,171.3 474.207,171.309 474.214,171.318L481.162,179.529C481.243,179.624 481.259,179.76 481.204,179.872L470.309,201.977C470.277,202.043 470.222,202.095 470.155,202.125L457.839,207.652C457.798,207.67 457.755,207.679 457.711,207.679" style="fill:rgb(51,0,254);fill-rule:nonzero;"/>
            </g>
            <g transform="matrix(1.28345,0,0,1.28345,998.497,1202.53)">
                <path d="M467.875,186.348L450.242,180.533C450.185,180.513 450.134,180.478 450.096,180.431L439.308,167.01L439.8,166.615L450.529,179.962L468.072,185.748L467.875,186.348Z" style="fill:rgb(51,0,254);fill-rule:nonzero;"/>
            </g>
            <g transform="matrix(1.28345,0,0,1.28345,998.497,1202.53)">
                <path d="M440.569,180.945L446.214,187.623L448.183,183.763L440.569,180.945ZM446.656,188.146L452.275,194.795L456.321,186.776L448.78,183.985L446.656,188.146ZM446.344,188.756L440.254,200.686L451.836,195.253L446.344,188.756ZM452.784,195.189L468.982,201.118L456.833,187.165L452.784,195.189ZM470.026,202.153C469.99,202.153 469.953,202.146 469.918,202.133L452.357,195.705L439.687,201.649C439.565,201.707 439.421,201.679 439.326,201.583C439.232,201.486 439.211,201.34 439.272,201.219L445.902,188.233L439.312,180.436C439.219,180.326 439.213,180.168 439.295,180.05C439.377,179.933 439.528,179.886 439.663,179.936L448.472,183.198L454.422,171.546L439.452,166.453L439.655,165.855L454.97,171.065C455.057,171.094 455.127,171.161 455.161,171.246C455.196,171.331 455.191,171.426 455.15,171.507L449.069,183.419L456.607,186.209L466.797,166.011L467.361,166.296L457.139,186.555L470.264,201.63C470.359,201.738 470.368,201.897 470.286,202.015C470.226,202.103 470.128,202.153 470.026,202.153" style="fill:rgb(51,0,254);fill-rule:nonzero;"/>
            </g>
            <g transform="matrix(1.28345,0,0,1.28345,998.497,1202.53)">
                <path d="M457.711,207.679C457.624,207.679 457.539,207.643 457.48,207.578L443.795,192.793L426.185,186.504C426.064,186.46 425.981,186.348 425.976,186.219C425.97,186.09 426.044,185.971 426.161,185.918L439.317,179.992L449.058,159.388L449.628,159.657L439.839,180.367C439.807,180.436 439.752,180.49 439.684,180.521L427.135,186.172L444.081,192.225C444.129,192.241 444.172,192.27 444.206,192.307L457.628,206.809L467.69,185.911C467.72,185.848 467.772,185.795 467.835,185.765L480.079,179.792L463.16,174.31L450.465,180.547L450.187,179.981L462.997,173.686C463.07,173.651 463.156,173.644 463.233,173.669L481.018,179.433C481.141,179.472 481.227,179.582 481.235,179.71C481.245,179.839 481.175,179.96 481.06,180.017L468.211,186.284L457.995,207.5C457.95,207.595 457.861,207.66 457.758,207.676C457.742,207.678 457.727,207.679 457.711,207.679" style="fill:rgb(51,0,254);fill-rule:nonzero;"/>
            </g>
            <g transform="matrix(1.28345,0,0,1.28345,998.497,1202.53)">
                <path d="M462.897,174.177L449.97,159.271L450.448,158.857L463.376,173.763L462.897,174.177Z" style="fill:rgb(51,0,254);fill-rule:nonzero;"/>
            </g>
            <g transform="matrix(1.28345,0,0,1.28345,998.497,1202.53)">
                <path d="M454.99,171.656L454.747,171.073L467.852,165.606L468.095,166.188L454.99,171.656Z" style="fill:rgb(51,0,254);fill-rule:nonzero;"/>
            </g>
            <g transform="matrix(-0.19208,-1.269,1.269,-0.19208,1475.66,2037.2)">
                <path d="M485.877,203.744C485.845,203.866 485.801,203.981 485.733,204.087C485.593,204.305 485.376,204.469 485.127,204.543C485.031,204.572 484.933,204.585 484.833,204.588L484.815,203.974L484.804,204.588C484.766,204.587 484.729,204.585 484.692,204.581C484.52,204.558 484.363,204.501 484.217,204.408C484.032,204.281 483.851,204.145 483.669,204.012C482.904,203.45 482.149,202.875 481.406,202.284C478.36,199.861 475.501,197.204 472.788,194.416C471.302,192.889 469.861,191.319 468.463,189.711C467.347,188.429 466.258,187.123 465.209,185.786C465.003,185.525 464.8,185.262 464.6,184.997C464.369,184.69 464.141,184.381 463.911,184.074C463.695,183.789 463.479,183.504 463.263,183.219C462.633,182.4 461.999,181.585 461.354,180.779C459.271,178.178 457.094,175.65 454.804,173.228C453.788,172.153 452.749,171.099 451.678,170.079C451.27,169.69 450.856,169.307 450.436,168.931C450.007,168.547 449.571,168.171 449.121,167.813C448.629,167.478 448.136,167.144 447.641,166.812C441.895,162.959 435.978,159.358 429.894,156.061C425.319,153.582 420.651,151.269 415.891,149.164C411.882,147.39 407.805,145.764 403.658,144.342C402.259,143.862 400.851,143.406 399.435,142.981C398.263,142.629 397.084,142.296 395.896,142.001C395.605,141.928 395.313,141.862 395.02,141.794C394.968,141.779 394.969,141.779 394.917,141.761C394.85,141.735 394.785,141.705 394.724,141.668C394.586,141.583 394.471,141.467 394.383,141.332L394.364,141.302C394.298,141.192 394.249,141.069 394.225,140.942C394.176,140.677 394.23,140.392 394.373,140.164C394.504,139.956 394.705,139.795 394.937,139.714C395.109,139.653 395.289,139.643 395.469,139.667C395.588,139.69 395.707,139.718 395.825,139.745C397.154,140.057 398.471,140.423 399.779,140.812C401.433,141.304 403.074,141.837 404.705,142.401C408.967,143.875 413.157,145.559 417.275,147.396C421.581,149.317 425.812,151.404 429.969,153.629C434.636,156.128 439.209,158.802 443.683,161.633C445.811,162.98 447.916,164.363 450.001,165.778L450.394,166.046C450.728,166.302 451.049,166.575 451.367,166.85C451.832,167.253 452.287,167.667 452.737,168.087C453.977,169.245 455.172,170.452 456.339,171.684C458.918,174.407 461.357,177.263 463.679,180.207C464.231,180.907 464.777,181.612 465.315,182.322C465.687,182.812 466.051,183.306 466.421,183.797C466.519,183.925 466.618,184.053 466.716,184.18C467.896,185.693 469.125,187.167 470.389,188.61C471.612,190.005 472.869,191.371 474.159,192.705C475.601,194.195 477.086,195.644 478.618,197.041C480.109,198.401 481.646,199.712 483.235,200.956C483.964,201.525 484.704,202.079 485.455,202.619C485.497,202.651 485.496,202.65 485.537,202.684C485.59,202.734 485.64,202.785 485.684,202.842C485.811,203.01 485.887,203.215 485.902,203.425C485.907,203.493 485.903,203.559 485.897,203.626C485.889,203.686 485.889,203.685 485.877,203.744Z" style="fill:rgb(38,3,165);fill-rule:nonzero;"/>
            </g>
            <g transform="matrix(1.28345,0,0,1.28345,998.497,1203.9)">
                <path d="M484.741,204.585C484.61,204.577 484.48,204.544 484.36,204.49C484.313,204.468 484.268,204.44 484.224,204.412C484.121,204.346 484.024,204.27 483.925,204.198C483.84,204.137 483.755,204.075 483.669,204.013C481.32,202.291 479.083,200.42 476.937,198.452C475.582,197.209 474.264,195.927 472.979,194.612C471.426,193.023 469.921,191.387 468.463,189.711C467.347,188.429 466.258,187.123 465.209,185.787C465.004,185.526 464.801,185.263 464.601,184.999C464.369,184.692 464.142,184.381 463.911,184.074C463.696,183.788 463.479,183.504 463.263,183.219C462.839,182.667 462.414,182.117 461.983,181.571C459.787,178.786 457.485,176.081 455.056,173.495C453.96,172.328 452.838,171.183 451.678,170.08C450.852,169.295 450.01,168.525 449.12,167.812C448.628,167.478 448.136,167.144 447.642,166.812C445.827,165.597 443.997,164.405 442.149,163.239C440.406,162.139 438.645,161.066 436.871,160.016C433.852,158.231 430.792,156.516 427.688,154.883C423.197,152.52 418.622,150.319 413.957,148.322C410.037,146.645 406.052,145.118 402.002,143.787C400.488,143.29 398.964,142.825 397.428,142.403C396.919,142.263 396.409,142.128 395.896,142.001C395.714,141.956 395.532,141.911 395.349,141.869C395.244,141.845 395.138,141.818 395.031,141.798L394.964,141.778C394.897,141.755 394.83,141.728 394.767,141.694C394.646,141.626 394.536,141.533 394.449,141.425C394.361,141.315 394.294,141.188 394.253,141.053C394.166,140.757 394.209,140.429 394.372,140.167C394.445,140.048 394.542,139.946 394.654,139.863C394.771,139.777 394.905,139.715 395.047,139.682C395.202,139.645 395.359,139.647 395.516,139.676C395.62,139.699 395.723,139.721 395.827,139.745C397.918,140.246 399.982,140.852 402.03,141.509C404.982,142.456 407.898,143.516 410.78,144.658C413.494,145.734 416.179,146.886 418.834,148.101C422.603,149.826 426.315,151.672 429.969,153.628C431.284,154.332 432.591,155.052 433.891,155.783C437.711,157.928 441.461,160.197 445.146,162.566C446.268,163.288 447.383,164.019 448.492,164.761C449.128,165.186 449.764,165.611 450.394,166.046C450.45,166.084 450.501,166.129 450.554,166.172C450.595,166.204 450.636,166.237 450.677,166.27C450.859,166.418 451.04,166.569 451.219,166.723C452.165,167.533 453.072,168.39 453.962,169.262C454.951,170.231 455.915,171.225 456.859,172.238C459.245,174.795 461.513,177.461 463.679,180.207C464.231,180.906 464.776,181.612 465.315,182.321C465.485,182.545 465.813,182.981 465.98,183.205C466.127,183.402 466.272,183.6 466.421,183.796C466.59,184.017 466.76,184.236 466.931,184.456C469.142,187.257 471.5,189.942 473.974,192.513C475.337,193.929 476.738,195.309 478.182,196.641C479.735,198.074 481.335,199.457 482.994,200.766C483.476,201.147 483.964,201.522 484.456,201.889C484.788,202.136 485.122,202.379 485.457,202.621C485.498,202.651 485.497,202.651 485.536,202.684C485.656,202.793 485.752,202.921 485.816,203.07C485.957,203.398 485.926,203.788 485.732,204.089C485.662,204.198 485.572,204.295 485.468,204.372C485.366,204.448 485.249,204.507 485.127,204.543C485.043,204.569 484.956,204.58 484.868,204.588C484.804,204.588 484.805,204.589 484.741,204.585Z" style="fill:rgb(38,3,165);fill-rule:nonzero;"/>
            </g>
            <g transform="matrix(1.28345,0,0,1.28345,998.497,1202.53)">
                <path d="M393.965,127.957C394.018,127.959 394.018,127.959 394.07,127.967L394.116,127.973C394.274,128.007 394.433,128.04 394.591,128.076C395.87,128.363 397.139,128.7 398.4,129.059C399.939,129.495 401.468,129.966 402.987,130.466C407.391,131.915 411.721,133.583 415.978,135.418C420.869,137.526 425.669,139.845 430.374,142.34C436.872,145.785 443.189,149.566 449.316,153.633L449.361,153.662C449.852,154.041 450.328,154.44 450.797,154.847C451.307,155.291 451.807,155.746 452.301,156.207C453.434,157.266 454.534,158.359 455.611,159.475C458.128,162.082 460.518,164.815 462.798,167.633C463.474,168.468 464.141,169.311 464.798,170.161C465.062,170.503 465.322,170.846 465.586,171.188C465.685,171.314 465.785,171.441 465.885,171.567C467.086,173.063 468.331,174.522 469.614,175.948C470.974,177.461 472.374,178.938 473.814,180.374C476.295,182.849 478.896,185.208 481.648,187.379C482.29,187.886 482.942,188.382 483.602,188.866C483.932,189.109 484.266,189.347 484.6,189.585L484.853,189.761L484.897,189.792C484.936,189.826 484.936,189.826 484.975,189.86C485.092,189.973 485.185,190.107 485.244,190.259C485.391,190.638 485.311,191.079 485.04,191.381C484.951,191.479 484.844,191.563 484.726,191.623C484.581,191.697 484.423,191.734 484.261,191.741L484.235,191.126L484.235,191.741L484.16,191.741C484.079,191.731 483.998,191.721 483.919,191.697C483.811,191.664 483.711,191.613 483.616,191.552C483.44,191.429 483.265,191.305 483.09,191.181C479.758,188.801 476.64,186.133 473.69,183.297C471.717,181.401 469.818,179.43 467.989,177.395C466.853,176.131 465.74,174.843 464.667,173.524C464.396,173.191 464.126,172.857 463.863,172.518C463.711,172.322 463.562,172.124 463.411,171.928C463.191,171.641 462.969,171.355 462.748,171.07C462.53,170.791 462.311,170.512 462.092,170.234C461.456,169.434 460.815,168.637 460.163,167.85C458.142,165.412 456.037,163.042 453.833,160.767C452.743,159.642 451.627,158.541 450.474,157.48C449.73,156.795 448.972,156.121 448.175,155.498L448.081,155.425C447.46,155.015 446.839,154.604 446.215,154.199C444.154,152.861 442.073,151.554 439.97,150.283C436.698,148.304 433.374,146.414 430.003,144.609C428.428,143.765 426.841,142.943 425.244,142.142C421.914,140.473 418.54,138.893 415.119,137.418C410.925,135.611 406.66,133.966 402.322,132.538C401.09,132.133 399.852,131.747 398.608,131.383C397.258,130.988 395.901,130.616 394.532,130.295C394.255,130.23 393.978,130.171 393.701,130.11L393.655,130.102C393.602,130.086 393.547,130.07 393.495,130.049C393.381,130.001 393.274,129.932 393.182,129.849C392.974,129.659 392.845,129.388 392.829,129.107C392.821,128.959 392.843,128.81 392.893,128.672C392.93,128.571 392.982,128.474 393.046,128.388C393.119,128.291 393.211,128.204 393.311,128.137C393.412,128.07 393.527,128.018 393.644,127.988C393.71,127.971 393.776,127.964 393.843,127.957C393.904,127.954 393.904,127.954 393.965,127.957ZM484.143,190.765L484.148,190.769C484.146,190.768 484.141,190.764 484.143,190.765ZM393.899,129.184L393.897,129.184C393.897,129.184 393.898,129.184 393.899,129.184Z" style="fill:rgb(38,3,165);fill-rule:nonzero;"/>
            </g>
            <g transform="matrix(1.29504,0,0,1.29504,989.904,1201.75)">
                <path d="M486.469,171.676C486.469,177.652 481.625,182.495 475.65,182.495C469.674,182.495 464.83,177.652 464.83,171.676C464.83,165.7 469.674,160.857 475.65,160.857C481.625,160.857 486.469,165.7 486.469,171.676" style="fill:rgb(2,249,159);fill-rule:nonzero;"/>
            </g>
            <g transform="matrix(1.28345,0,0,1.28345,998.497,1206.33)">
                <path d="M478.931,152.383C478.931,158.051 474.336,162.646 468.668,162.646C463,162.646 458.406,158.051 458.406,152.383C458.406,146.715 463,142.12 468.668,142.12C474.336,142.12 478.931,146.715 478.931,152.383" style="fill:rgb(2,249,159);fill-rule:nonzero;"/>
            </g>
            <g transform="matrix(1.28345,0,0,1.28345,998.497,1202.53)">
                <path d="M491.141,163.962C491.141,169.63 486.546,174.225 480.878,174.225C475.21,174.225 470.616,169.63 470.616,163.962C470.616,158.294 475.21,153.699 480.878,153.699C486.546,153.699 491.141,158.294 491.141,163.962" style="fill:rgb(2,249,159);fill-rule:nonzero;"/>
            </g>
            <g transform="matrix(1.28345,0,0,1.28345,998.497,1202.53)">
                <path d="M453.963,158.409C453.963,170.181 444.42,179.724 432.648,179.724C420.876,179.724 411.333,170.181 411.333,158.409C411.333,146.638 420.876,137.094 432.648,137.094C444.42,137.094 453.963,146.638 453.963,158.409" style="fill:rgb(2,249,159);fill-rule:nonzero;"/>
            </g>
            <g transform="matrix(2.26111,0,0,2.26111,-313.953,-169.681)">
                <g transform="matrix(1,0,0,1,762.699,741.175)">
                    <path d="M1.012,-9.456C1.055,-10.26 1.231,-11.018 1.54,-11.729C1.849,-12.439 2.287,-13.057 2.854,-13.581C3.421,-14.105 4.111,-14.522 4.922,-14.83C5.733,-15.139 6.67,-15.293 7.733,-15.293C8.781,-15.293 9.715,-15.139 10.533,-14.83C11.352,-14.522 12.044,-14.105 12.612,-13.581C13.179,-13.057 13.617,-12.439 13.926,-11.729C14.234,-11.018 14.41,-10.26 14.453,-9.456C14.482,-8.839 14.496,-8.192 14.496,-7.517C14.496,-6.843 14.482,-6.211 14.453,-5.622C14.41,-4.818 14.234,-4.06 13.926,-3.349C13.617,-2.639 13.179,-2.018 12.612,-1.486C12.044,-0.955 11.352,-0.539 10.533,-0.237C9.715,0.065 8.781,0.215 7.733,0.215C6.67,0.215 5.733,0.065 4.922,-0.237C4.111,-0.539 3.421,-0.955 2.854,-1.486C2.287,-2.018 1.849,-2.639 1.54,-3.349C1.231,-4.06 1.055,-4.818 1.012,-5.622C0.984,-6.211 0.969,-6.843 0.969,-7.517C0.969,-8.192 0.984,-8.839 1.012,-9.456ZM10.468,-5.73C10.483,-5.988 10.497,-6.275 10.512,-6.591C10.526,-6.907 10.533,-7.23 10.533,-7.561C10.533,-7.891 10.526,-8.21 10.512,-8.519C10.497,-8.828 10.483,-9.104 10.468,-9.348C10.44,-9.707 10.364,-10.038 10.242,-10.339C10.12,-10.641 9.948,-10.903 9.725,-11.125C9.503,-11.348 9.226,-11.524 8.896,-11.653C8.566,-11.782 8.178,-11.847 7.733,-11.847C7.288,-11.847 6.9,-11.782 6.57,-11.653C6.239,-11.524 5.963,-11.348 5.74,-11.125C5.518,-10.903 5.346,-10.641 5.223,-10.339C5.101,-10.038 5.026,-9.707 4.997,-9.348C4.969,-9.104 4.951,-8.828 4.943,-8.519C4.936,-8.21 4.933,-7.891 4.933,-7.561C4.933,-7.23 4.936,-6.907 4.943,-6.591C4.951,-6.275 4.969,-5.988 4.997,-5.73C5.055,-5.012 5.302,-4.416 5.74,-3.942C6.178,-3.468 6.843,-3.231 7.733,-3.231C8.623,-3.231 9.284,-3.468 9.715,-3.942C10.145,-4.416 10.397,-5.012 10.468,-5.73Z" style="fill:rgb(38,3,165);fill-rule:nonzero;"/>
                    <path d="M23.263,-15.078C24.254,-15.078 25.159,-14.931 25.977,-14.636C26.796,-14.342 27.503,-13.929 28.099,-13.398C28.695,-12.867 29.162,-12.231 29.499,-11.492C29.836,-10.752 30.027,-9.944 30.07,-9.068C30.084,-8.767 30.091,-8.49 30.091,-8.239L30.091,-6.807C30.091,-6.563 30.084,-6.297 30.07,-6.01C30.027,-5.119 29.84,-4.308 29.51,-3.576C29.18,-2.843 28.724,-2.211 28.142,-1.68C27.56,-1.149 26.868,-0.736 26.063,-0.442C25.259,-0.147 24.362,0 23.371,0L17.555,0C17.397,0 17.261,-0.057 17.146,-0.172C17.031,-0.287 16.974,-0.424 16.974,-0.582L16.974,-14.496C16.974,-14.654 17.031,-14.791 17.146,-14.906C17.261,-15.021 17.397,-15.078 17.555,-15.078L23.263,-15.078ZM26.085,-9.154C25.999,-10.806 25.022,-11.632 23.155,-11.632L20.958,-11.632L20.958,-3.446L23.263,-3.446C25.073,-3.446 26.013,-4.272 26.085,-5.924C26.099,-6.225 26.106,-6.509 26.106,-6.774L26.106,-8.314C26.106,-8.573 26.099,-8.853 26.085,-9.154Z" style="fill:rgb(38,3,165);fill-rule:nonzero;"/>
                </g>
                <g transform="matrix(1,0,0,1,793.738,741.175)">
                    <path d="M7.797,-15.078C8.788,-15.078 9.693,-14.931 10.512,-14.636C11.33,-14.342 12.037,-13.929 12.633,-13.398C13.229,-12.867 13.696,-12.231 14.033,-11.492C14.371,-10.752 14.561,-9.944 14.604,-9.068C14.618,-8.767 14.626,-8.49 14.626,-8.239L14.626,-6.807C14.626,-6.563 14.618,-6.297 14.604,-6.01C14.561,-5.119 14.374,-4.308 14.044,-3.576C13.714,-2.843 13.258,-2.211 12.676,-1.68C12.095,-1.149 11.402,-0.736 10.598,-0.442C9.794,-0.147 8.896,0 7.905,0L2.089,0C1.931,0 1.795,-0.057 1.68,-0.172C1.565,-0.287 1.508,-0.424 1.508,-0.582L1.508,-14.496C1.508,-14.654 1.565,-14.791 1.68,-14.906C1.795,-15.021 1.931,-15.078 2.089,-15.078L7.797,-15.078ZM10.619,-9.154C10.533,-10.806 9.557,-11.632 7.69,-11.632L5.493,-11.632L5.493,-3.446L7.797,-3.446C9.607,-3.446 10.547,-4.272 10.619,-5.924C10.634,-6.225 10.641,-6.509 10.641,-6.774L10.641,-8.314C10.641,-8.573 10.634,-8.853 10.619,-9.154Z" style="fill:rgb(38,3,165);fill-rule:nonzero;"/>
                </g>
                <g transform="matrix(1,0,0,1,811.912,741.175)">
                    <path d="M7.108,-15.293C8.027,-15.293 8.871,-15.161 9.639,-14.895C10.407,-14.629 11.072,-14.288 11.632,-13.872C12.192,-13.455 12.63,-12.996 12.946,-12.493C13.261,-11.991 13.427,-11.51 13.441,-11.05C13.441,-10.921 13.394,-10.809 13.301,-10.716C13.208,-10.623 13.103,-10.576 12.989,-10.576L10.167,-10.576C9.966,-10.576 9.804,-10.605 9.682,-10.662C9.56,-10.72 9.435,-10.806 9.305,-10.921C9.262,-10.964 9.194,-11.036 9.101,-11.136C9.007,-11.237 8.874,-11.341 8.702,-11.449C8.53,-11.556 8.314,-11.65 8.056,-11.729C7.797,-11.808 7.482,-11.847 7.108,-11.847C6.835,-11.847 6.573,-11.829 6.322,-11.793C6.071,-11.757 5.848,-11.7 5.654,-11.621C5.46,-11.542 5.302,-11.431 5.18,-11.287C5.058,-11.143 4.997,-10.964 4.997,-10.748C4.997,-10.533 5.065,-10.354 5.202,-10.21C5.338,-10.066 5.568,-9.934 5.891,-9.811C6.214,-9.689 6.642,-9.571 7.173,-9.456C7.704,-9.341 8.365,-9.205 9.154,-9.047C9.944,-8.889 10.634,-8.688 11.222,-8.444C11.811,-8.2 12.303,-7.894 12.698,-7.528C13.093,-7.162 13.387,-6.731 13.581,-6.236C13.775,-5.74 13.872,-5.155 13.872,-4.48C13.872,-3.748 13.707,-3.095 13.376,-2.52C13.046,-1.946 12.583,-1.454 11.987,-1.045C11.391,-0.635 10.687,-0.323 9.876,-0.108C9.065,0.108 8.178,0.215 7.216,0.215C6.239,0.215 5.349,0.086 4.545,-0.172C3.741,-0.431 3.048,-0.772 2.466,-1.195C1.885,-1.619 1.429,-2.097 1.099,-2.628C0.768,-3.159 0.596,-3.698 0.582,-4.243C0.582,-4.373 0.628,-4.484 0.722,-4.577C0.815,-4.671 0.919,-4.717 1.034,-4.717L3.856,-4.717C4.057,-4.717 4.215,-4.692 4.33,-4.642C4.444,-4.592 4.559,-4.516 4.674,-4.416C4.732,-4.358 4.818,-4.265 4.933,-4.136C5.048,-4.006 5.202,-3.874 5.396,-3.737C5.59,-3.601 5.834,-3.482 6.128,-3.382C6.423,-3.281 6.785,-3.231 7.216,-3.231C7.977,-3.231 8.612,-3.314 9.122,-3.479C9.632,-3.644 9.887,-3.942 9.887,-4.373C9.887,-4.588 9.794,-4.768 9.607,-4.911C9.42,-5.055 9.14,-5.188 8.767,-5.31C8.393,-5.432 7.916,-5.55 7.334,-5.665C6.753,-5.78 6.067,-5.924 5.277,-6.096C3.798,-6.412 2.718,-6.939 2.036,-7.679C1.353,-8.419 1.012,-9.406 1.012,-10.641C1.012,-11.258 1.152,-11.847 1.432,-12.407C1.712,-12.967 2.118,-13.462 2.649,-13.893C3.181,-14.324 3.823,-14.665 4.577,-14.916C5.331,-15.168 6.175,-15.293 7.108,-15.293Z" style="fill:rgb(38,3,165);fill-rule:nonzero;"/>
                    <path d="M19.494,-9.348C19.479,-9.162 19.469,-8.903 19.461,-8.573C19.454,-8.243 19.451,-7.902 19.451,-7.55C19.451,-7.198 19.454,-6.853 19.461,-6.516C19.469,-6.178 19.479,-5.916 19.494,-5.73C19.522,-5.399 19.587,-5.083 19.688,-4.782C19.788,-4.48 19.946,-4.215 20.161,-3.985C20.377,-3.755 20.65,-3.572 20.98,-3.436C21.31,-3.299 21.72,-3.231 22.208,-3.231C22.696,-3.231 23.098,-3.288 23.414,-3.403C23.73,-3.518 23.988,-3.658 24.189,-3.823C24.39,-3.988 24.545,-4.172 24.653,-4.373C24.76,-4.574 24.843,-4.76 24.9,-4.933C24.972,-5.162 25.051,-5.324 25.137,-5.417C25.223,-5.511 25.388,-5.557 25.633,-5.557L28.454,-5.557C28.584,-5.557 28.695,-5.511 28.788,-5.417C28.882,-5.324 28.928,-5.213 28.928,-5.083C28.914,-4.351 28.734,-3.662 28.39,-3.016C28.045,-2.369 27.571,-1.809 26.968,-1.335C26.365,-0.862 25.658,-0.485 24.846,-0.205C24.035,0.075 23.156,0.215 22.208,0.215C21.174,0.215 20.251,0.061 19.44,-0.248C18.629,-0.556 17.936,-0.976 17.361,-1.508C16.787,-2.039 16.345,-2.66 16.037,-3.371C15.728,-4.082 15.552,-4.832 15.509,-5.622C15.48,-6.211 15.466,-6.843 15.466,-7.517C15.466,-8.192 15.48,-8.839 15.509,-9.456C15.538,-10.246 15.71,-10.996 16.026,-11.707C16.342,-12.418 16.783,-13.039 17.35,-13.57C17.918,-14.102 18.611,-14.522 19.429,-14.83C20.248,-15.139 21.174,-15.293 22.208,-15.293C23.156,-15.293 24.035,-15.153 24.846,-14.873C25.658,-14.593 26.365,-14.216 26.968,-13.743C27.571,-13.269 28.045,-12.709 28.39,-12.062C28.734,-11.416 28.914,-10.727 28.928,-9.995C28.928,-9.865 28.882,-9.754 28.788,-9.661C28.695,-9.567 28.584,-9.521 28.454,-9.521L25.633,-9.521C25.388,-9.521 25.223,-9.567 25.137,-9.661C25.051,-9.754 24.972,-9.916 24.9,-10.145C24.843,-10.318 24.76,-10.504 24.653,-10.705C24.545,-10.906 24.39,-11.09 24.189,-11.255C23.988,-11.42 23.73,-11.56 23.414,-11.675C23.098,-11.79 22.696,-11.847 22.208,-11.847C21.72,-11.847 21.31,-11.779 20.98,-11.642C20.65,-11.506 20.377,-11.323 20.161,-11.093C19.946,-10.863 19.788,-10.598 19.688,-10.296C19.587,-9.995 19.522,-9.679 19.494,-9.348Z" style="fill:rgb(38,3,165);fill-rule:nonzero;"/>
                    <path d="M41.938,-3.446C42.096,-3.446 42.233,-3.389 42.348,-3.274C42.463,-3.159 42.52,-3.023 42.52,-2.865L42.52,-0.582C42.52,-0.424 42.463,-0.287 42.348,-0.172C42.233,-0.057 42.096,0 41.938,0L31.728,0C31.57,0 31.434,-0.057 31.319,-0.172C31.204,-0.287 31.147,-0.424 31.147,-0.582L31.147,-14.496C31.147,-14.654 31.204,-14.791 31.319,-14.906C31.434,-15.021 31.57,-15.078 31.728,-15.078L41.766,-15.078C41.924,-15.078 42.06,-15.021 42.175,-14.906C42.29,-14.791 42.348,-14.654 42.348,-14.496L42.348,-12.213C42.348,-12.055 42.29,-11.919 42.175,-11.804C42.06,-11.689 41.924,-11.632 41.766,-11.632L35.132,-11.632L35.132,-9.305L41.292,-9.305C41.45,-9.305 41.587,-9.248 41.701,-9.133C41.816,-9.018 41.874,-8.882 41.874,-8.724L41.874,-6.44C41.874,-6.283 41.816,-6.146 41.701,-6.031C41.587,-5.916 41.45,-5.859 41.292,-5.859L35.132,-5.859L35.132,-3.446L41.938,-3.446Z" style="fill:rgb(38,3,165);fill-rule:nonzero;"/>
                    <path d="M54.798,0C54.554,0 54.356,-0.065 54.205,-0.194C54.055,-0.323 53.958,-0.424 53.915,-0.495L48.982,-7.862L48.982,-0.582C48.982,-0.424 48.925,-0.287 48.81,-0.172C48.695,-0.057 48.558,0 48.4,0L45.579,0C45.421,0 45.284,-0.057 45.169,-0.172C45.055,-0.287 44.997,-0.424 44.997,-0.582L44.997,-14.496C44.997,-14.654 45.055,-14.791 45.169,-14.906C45.284,-15.021 45.421,-15.078 45.579,-15.078L47.819,-15.078C48.063,-15.078 48.26,-15.013 48.411,-14.884C48.562,-14.755 48.659,-14.654 48.702,-14.583L53.635,-7.216L53.635,-14.496C53.635,-14.654 53.692,-14.791 53.807,-14.906C53.922,-15.021 54.058,-15.078 54.216,-15.078L57.038,-15.078C57.196,-15.078 57.332,-15.021 57.447,-14.906C57.562,-14.791 57.62,-14.654 57.62,-14.496L57.62,-0.582C57.62,-0.424 57.562,-0.287 57.447,-0.172C57.332,-0.057 57.196,0 57.038,0L54.798,0Z" style="fill:rgb(38,3,165);fill-rule:nonzero;"/>
                    <path d="M71.427,-3.446C71.585,-3.446 71.721,-3.389 71.836,-3.274C71.951,-3.159 72.008,-3.023 72.008,-2.865L72.008,-0.582C72.008,-0.424 71.951,-0.287 71.836,-0.172C71.721,-0.057 71.585,0 71.427,0L61.217,0C61.059,0 60.922,-0.057 60.807,-0.172C60.693,-0.287 60.635,-0.424 60.635,-0.582L60.635,-14.496C60.635,-14.654 60.693,-14.791 60.807,-14.906C60.922,-15.021 61.059,-15.078 61.217,-15.078L71.254,-15.078C71.412,-15.078 71.549,-15.021 71.664,-14.906C71.778,-14.791 71.836,-14.654 71.836,-14.496L71.836,-12.213C71.836,-12.055 71.778,-11.919 71.664,-11.804C71.549,-11.689 71.412,-11.632 71.254,-11.632L64.62,-11.632L64.62,-9.305L70.78,-9.305C70.938,-9.305 71.075,-9.248 71.19,-9.133C71.305,-9.018 71.362,-8.882 71.362,-8.724L71.362,-6.44C71.362,-6.283 71.305,-6.146 71.19,-6.031C71.075,-5.916 70.938,-5.859 70.78,-5.859L64.62,-5.859L64.62,-3.446L71.427,-3.446Z" style="fill:rgb(38,3,165);fill-rule:nonzero;"/>
                    <path d="M80.086,-15.293C81.005,-15.293 81.848,-15.161 82.617,-14.895C83.385,-14.629 84.049,-14.288 84.609,-13.872C85.169,-13.455 85.607,-12.996 85.923,-12.493C86.239,-11.991 86.404,-11.51 86.418,-11.05C86.418,-10.921 86.372,-10.809 86.278,-10.716C86.185,-10.623 86.081,-10.576 85.966,-10.576L83.144,-10.576C82.943,-10.576 82.782,-10.605 82.66,-10.662C82.538,-10.72 82.412,-10.806 82.283,-10.921C82.24,-10.964 82.172,-11.036 82.078,-11.136C81.985,-11.237 81.852,-11.341 81.68,-11.449C81.507,-11.556 81.292,-11.65 81.033,-11.729C80.775,-11.808 80.459,-11.847 80.086,-11.847C79.813,-11.847 79.551,-11.829 79.3,-11.793C79.048,-11.757 78.826,-11.7 78.632,-11.621C78.438,-11.542 78.28,-11.431 78.158,-11.287C78.036,-11.143 77.975,-10.964 77.975,-10.748C77.975,-10.533 78.043,-10.354 78.179,-10.21C78.316,-10.066 78.546,-9.934 78.869,-9.811C79.192,-9.689 79.619,-9.571 80.15,-9.456C80.682,-9.341 81.342,-9.205 82.132,-9.047C82.922,-8.889 83.611,-8.688 84.2,-8.444C84.789,-8.2 85.28,-7.894 85.675,-7.528C86.07,-7.162 86.365,-6.731 86.558,-6.236C86.752,-5.74 86.849,-5.155 86.849,-4.48C86.849,-3.748 86.684,-3.095 86.354,-2.52C86.024,-1.946 85.56,-1.454 84.965,-1.045C84.369,-0.635 83.665,-0.323 82.854,-0.108C82.042,0.108 81.156,0.215 80.193,0.215C79.217,0.215 78.327,0.086 77.522,-0.172C76.718,-0.431 76.025,-0.772 75.444,-1.195C74.862,-1.619 74.406,-2.097 74.076,-2.628C73.746,-3.159 73.573,-3.698 73.559,-4.243C73.559,-4.373 73.606,-4.484 73.699,-4.577C73.792,-4.671 73.897,-4.717 74.011,-4.717L76.833,-4.717C77.034,-4.717 77.192,-4.692 77.307,-4.642C77.422,-4.592 77.537,-4.516 77.652,-4.416C77.709,-4.358 77.795,-4.265 77.91,-4.136C78.025,-4.006 78.179,-3.874 78.373,-3.737C78.567,-3.601 78.811,-3.482 79.106,-3.382C79.4,-3.281 79.763,-3.231 80.193,-3.231C80.955,-3.231 81.59,-3.314 82.1,-3.479C82.609,-3.644 82.864,-3.942 82.864,-4.373C82.864,-4.588 82.771,-4.768 82.584,-4.911C82.398,-5.055 82.118,-5.188 81.744,-5.31C81.371,-5.432 80.893,-5.55 80.312,-5.665C79.73,-5.78 79.045,-5.924 78.255,-6.096C76.776,-6.412 75.695,-6.939 75.013,-7.679C74.331,-8.419 73.99,-9.406 73.99,-10.641C73.99,-11.258 74.13,-11.847 74.41,-12.407C74.69,-12.967 75.096,-13.462 75.627,-13.893C76.158,-14.324 76.801,-14.665 77.555,-14.916C78.309,-15.168 79.152,-15.293 80.086,-15.293Z" style="fill:rgb(38,3,165);fill-rule:nonzero;"/>
                </g>
            </g>
        </g>
    </g>
</svg>
